<svg width="2425" height="1302" xmlns="http://www.w3.org/2000/svg" xmlns:xlink="http://www.w3.org/1999/xlink" overflow="hidden"><rect width="100%" height="100%" fill="rgba(255,255,255,0.795)" rx="200" ry="200"/><defs><clipPath id="clip0"><rect x="815" y="586" width="2425" height="1302"/></clipPath></defs><g clip-path="url(#clip0)" transform="translate(-815 -586)"><path d="M1154.5 1241C1154.5 1035.27 1327.32 868.5 1540.5 868.5 1753.68 868.5 1926.5 1035.27 1926.5 1241 1926.5 1446.73 1753.68 1613.5 1540.5 1613.5 1327.32 1613.5 1154.5 1446.73 1154.5 1241Z" stroke="#2F528F" stroke-width="4.58333" stroke-linecap="butt" stroke-linejoin="miter" stroke-miterlimit="8" stroke-opacity="1" fill="#2F5597" fill-rule="evenodd" fill-opacity="1"/><text fill="#FFFFFF" fill-opacity="1" font-family="DengXian,DengXian_MSFontService,sans-serif" font-style="normal" font-variant="normal" font-weight="400" font-stretch="normal" font-size="83" text-anchor="start" direction="ltr" writing-mode="lr-tb" unicode-bidi="normal" text-decoration="none" transform="matrix(1 0 0 1 1332.28 1268)">FGOALS-F3</text><path d="M2497 1222C2497 1094.97 2603.56 992 2735 992 2866.44 992 2973 1094.97 2973 1222 2973 1349.03 2866.44 1452 2735 1452 2603.56 1452 2497 1349.03 2497 1222Z" fill="#C81614" fill-rule="evenodd" fill-opacity="0.670588"/><text fill="#FFFFFF" fill-opacity="1" font-family="DengXian,DengXian_MSFontService,sans-serif" font-style="normal" font-variant="normal" font-weight="400" font-stretch="normal" font-size="83" text-anchor="start" direction="ltr" writing-mode="lr-tb" unicode-bidi="normal" text-decoration="none" transform="matrix(1 0 0 1 2613.13 1200)">LICOM<tspan fill="#FFFFFF" fill-opacity="1" font-family="DengXian,DengXian_MSFontService,sans-serif" font-style="normal" font-variant="normal" font-weight="400" font-stretch="normal" font-size="83" text-anchor="start" direction="ltr" writing-mode="lr-tb" unicode-bidi="normal" text-decoration="none" x="25.4834" y="99">CUBE</tspan></text><path d="M1061.5 1651 1082.75 1651 1082.75 824.5 1125.25 824.5 1125.25 1651 1146.5 1651 1104 1693.5Z" stroke="#2F5597" stroke-width="4.58333" stroke-linecap="butt" stroke-linejoin="miter" stroke-miterlimit="8" stroke-opacity="1" fill="#2F5597" fill-rule="evenodd" fill-opacity="1"/><path d="M2990 1644 3011.5 1644 3011.5 818 3054.5 818 3054.5 1644 3076 1644 3033 1687Z" fill="#DA6361" fill-rule="evenodd" fill-opacity="1"/><text fill="#000000" fill-opacity="1" font-family="PingFang SC,PingFang SC_MSFontService,sans-serif" font-style="normal" font-variant="normal" font-weight="600" font-stretch="normal" font-size="83" text-anchor="start" direction="ltr" writing-mode="lr-tb" unicode-bidi="normal" text-decoration="none" transform="matrix(1 0 0 1 1020.49 783)">time<tspan fill="#000000" fill-opacity="1" font-family="PingFang SC,PingFang SC_MSFontService,sans-serif" font-style="normal" font-variant="normal" font-weight="600" font-stretch="normal" font-size="83" text-anchor="start" direction="ltr" writing-mode="lr-tb" unicode-bidi="normal" text-decoration="none" x="1927.88" y="-1">time</tspan></text><path d="M1926.5 1008.25 2466 1008.25 2466 992.5 2497.5 1024 2466 1055.5 2466 1039.75 1926.5 1039.75Z" stroke="#2F528F" stroke-width="4.58333" stroke-linecap="butt" stroke-linejoin="miter" stroke-miterlimit="8" stroke-opacity="1" fill="#2F5597" fill-rule="evenodd" fill-opacity="1"/><path d="M2496 1367.5 1955 1367.5 1955 1383 1924 1352 1955 1321 1955 1336.5 2496 1336.5Z" fill="#DA6361" fill-rule="evenodd" fill-opacity="1"/><path d="M821 809.837C821 691.738 916.738 596 1034.84 596L1945.16 596C2063.26 596 2159 691.738 2159 809.837L2159 1665.16C2159 1783.26 2063.26 1879 1945.16 1879L1034.84 1879C916.738 1879 821 1783.26 821 1665.16Z" stroke="#2F5597" stroke-width="10.3125" stroke-linecap="butt" stroke-linejoin="miter" stroke-miterlimit="8" stroke-dasharray="41.25 30.9375" stroke-opacity="1" fill="none" fill-rule="evenodd"/><path d="M2252 756.67C2252 667.934 2323.93 596 2412.67 596L3055.33 596C3144.07 596 3216 667.934 3216 756.67L3216 1718.33C3216 1807.07 3144.07 1879 3055.33 1879L2412.67 1879C2323.93 1879 2252 1807.07 2252 1718.33Z" stroke="#C00000" stroke-width="10.3125" stroke-linecap="butt" stroke-linejoin="miter" stroke-miterlimit="8" stroke-dasharray="41.25 30.9375" stroke-opacity="1" fill="none" fill-rule="evenodd"/><rect x="1373" y="688" width="293" height="133" fill="#DAE3F3" fill-opacity="1"/><text fill="#2F5597" fill-opacity="1" font-family="PingFang SC,PingFang SC_MSFontService,sans-serif" font-style="normal" font-variant="normal" font-weight="600" font-stretch="normal" font-size="83" text-anchor="start" direction="ltr" writing-mode="lr-tb" unicode-bidi="normal" text-decoration="none" transform="matrix(1 0 0 1 1406 779)">Timer</text><rect x="2588.5" y="691.5" width="294" height="133" stroke="#FBE5D6" stroke-width="3.4375" stroke-linecap="butt" stroke-linejoin="round" stroke-miterlimit="10" stroke-opacity="1" fill="#F8CBAD" fill-opacity="1"/><text fill="#C00000" fill-opacity="1" font-family="PingFang SC,PingFang SC_MSFontService,sans-serif" font-style="normal" font-variant="normal" font-weight="600" font-stretch="normal" font-size="83" text-anchor="start" direction="ltr" writing-mode="lr-tb" unicode-bidi="normal" text-decoration="none" transform="matrix(1 0 0 1 2621.45 782)">Timer</text><text fill="#000000" fill-opacity="1" font-family="PingFang SC,PingFang SC_MSFontService,sans-serif" font-style="normal" font-variant="normal" font-weight="400" font-stretch="normal" font-size="83" text-anchor="start" direction="ltr" writing-mode="lr-tb" unicode-bidi="normal" text-decoration="none" transform="matrix(-1.83697e-16 -1 1 -1.83697e-16 1008.2 1430)">integration<tspan fill="#000000" fill-opacity="1" font-family="PingFang SC,PingFang SC_MSFontService,sans-serif" font-style="normal" font-variant="normal" font-weight="400" font-stretch="normal" font-size="83" text-anchor="start" direction="ltr" writing-mode="lr-tb" unicode-bidi="normal" text-decoration="none" x="2" y="2157.15">integration</tspan></text><rect x="1970" y="1125" width="479" height="134" fill="#F8CBAD" fill-opacity="1"/><text fill="#000000" fill-opacity="1" font-family="PingFang SC,PingFang SC_MSFontService,sans-serif" font-style="normal" font-variant="normal" font-weight="400" font-stretch="normal" font-size="83" text-anchor="start" direction="ltr" writing-mode="lr-tb" unicode-bidi="normal" text-decoration="none" transform="matrix(1 0 0 1 2003.35 1217)">C<tspan fill="#000000" fill-opacity="1" font-family="PingFang SC,PingFang SC_MSFontService,sans-serif" font-style="normal" font-variant="normal" font-weight="400" font-stretch="normal" font-size="83" text-anchor="start" direction="ltr" writing-mode="lr-tb" unicode-bidi="normal" text-decoration="none" x="60.1561" y="0">-</tspan><tspan fill="#000000" fill-opacity="1" font-family="PingFang SC,PingFang SC_MSFontService,sans-serif" font-style="normal" font-variant="normal" font-weight="400" font-stretch="normal" font-size="83" text-anchor="start" direction="ltr" writing-mode="lr-tb" unicode-bidi="normal" text-decoration="none" x="110" y="0">Coupler</tspan></text></g></svg>